<?xml version="1.0" encoding="UTF-8"?>
<!DOCTYPE svg PUBLIC "-//W3C//DTD SVG 1.1//EN" "http://www.w3.org/Graphics/SVG/1.1/DTD/svg11.dtd">
<!-- Creator: CorelDRAW 2021 (64-Bit) -->
<svg xmlns="http://www.w3.org/2000/svg" xml:space="preserve" width="210mm" height="297mm" version="1.1" style="shape-rendering:geometricPrecision; text-rendering:geometricPrecision; image-rendering:optimizeQuality; fill-rule:evenodd; clip-rule:evenodd"
viewBox="0 0 21000 29700"
 xmlns:xlink="http://www.w3.org/1999/xlink"
 xmlns:xodm="http://www.corel.com/coreldraw/odm/2003">
 <defs>
   <clipPath id="id0">
    <path d="M4110.87 7629.76l12764 0 0 14441.54 -12764 0 0 -14441.54zm4744.54 7394.74c-89.33,197.56 -74.27,339.91 -74.27,555.38l0 468.68c-5.16,23.92 -53.62,102.47 -68.79,251.83 -9.61,94.77 -8.64,287.49 12.12,388.93 17.31,84.62 102.59,345.64 153.24,438.9 37.68,69.34 82.74,128.03 137.76,184.36 91.92,94.12 127.4,247.53 337.19,389.42l73.93 93.35c143.4,157.77 36.93,20.7 126.83,168.69 77.77,128 241.51,288.6 375.78,361.53 176.63,95.94 325.11,166.96 527.2,169.5 51.23,0.65 29.81,2.51 89.61,24.41 181.57,66.45 377.1,48.54 566.82,48.54 142.37,0 666.49,7.84 778.26,-9.24 271.69,-41.47 378.1,-183.87 443.81,-215.53 67.94,-32.77 135.27,-78.2 191.09,-128.94 19.48,-17.71 115.48,-52.02 218.81,-145.88 38.1,-34.6 263.81,-104.39 402.02,-391.22l35.99 -77.86c141.01,-232.1 115.82,-444.52 115.82,-706.59l0 -1167 -1.02 -551.73c-10.21,-201.26 -92.98,-380.8 -233.27,-524.51l-329.53 -326.88c-87.41,-87.38 -134.64,-135.7 -254.03,-193.22 -33.05,-15.95 -45.46,-26.24 -63.34,-63.35 -32.74,-67.93 -78.23,-135.27 -128.94,-191.08 -21.82,-24.02 -56.39,-127.83 -172.35,-246.59 -126.2,-129.26 -231.73,-246.05 -400.17,-317.32 -108.95,-46.09 -135.9,-86.79 -296.04,-119.56 -109.21,-22.33 -260.22,-15.17 -265.19,-16.25 -23.95,-5.14 -102.47,-53.62 -251.86,-68.79 -84.59,-8.59 -410.12,-7.93 -495.37,5.07 -180.31,27.55 -347.75,117.93 -470.36,252.89 -69.16,76.12 -97.6,85.16 -164.93,196.02 -51.62,84.94 -136.76,256.49 -163.57,360.76l-5.5 23.78c-185.76,92.87 -251.92,136.82 -395.38,294.68 -59.64,65.62 -110.4,144.82 -144.94,226.51 -37.79,89.32 -116.68,209.14 -160.2,328.07 -28.95,79.05 -40.9,146.96 -47.23,230.24z"/>
   </clipPath>
 </defs>
 <g id="Layer_x0020_1">
  <metadata id="CorelCorpID_0Corel-Layer"/>
  <g style="clip-path:url(#id0)">
   <image id="Group_1000006771-removebg-preview.png" x="4110.87" y="7629.74" width="12764.01" height="14441.56" xlink:href="loader2_Images\loader2_ImgID1.png"/>
  </g>
 </g>
</svg>
