<svg width="111" height="25" viewBox="0 0 111 25" fill="none" xmlns="http://www.w3.org/2000/svg">
<mask id="path-1-outside-1_458_4593" maskUnits="userSpaceOnUse" x="0" y="-1" width="111" height="26" fill="black">
<rect fill="white" y="-1" width="111" height="26"/>
<path d="M8.35767 24L11.7412 6.75375H16.9972L20.9064 24H17.2929L13.318 6.8523H15.2233L11.7084 24H8.35767ZM7.01082 24L6.97797 20.2551H10.6243V24H7.01082ZM5.17122 24L0.309416 6.16245H4.74417L9.37602 24H5.17122ZM18.4426 24V20.2551H22.089L22.0561 24H18.4426ZM19.888 24L23.9943 6.16245H28.1334L23.83 24H19.888ZM35.289 24L29.7045 6.16245H34.402L39.7566 24H35.289ZM36.6358 24V20.2551H41.4648V24H36.6358ZM38.4426 24L43.0416 6.16245H47.4435L42.6145 24H38.4426ZM50.1487 24V18.744H55.2733V24H50.1487ZM50.1487 12.6667V7.41075H55.2733V12.6667H50.1487Z"/>
<path d="M64.7048 24L70.5192 14.4735L70.4207 15.229L64.9347 6.16245H69.8951L73.4757 12.4368H73.9685L77.352 6.16245H82.0167L76.8264 15.1962L76.925 14.5392L83.0679 24H78.1076L73.8699 17.2657H73.3772L69.3695 24H64.7048ZM93.5663 24.6242C92.0333 24.6242 90.6864 24.3614 89.5257 23.8357C88.3869 23.3102 87.4343 22.6093 86.6678 21.7333C85.9232 20.8354 85.3538 19.839 84.9596 18.744C84.5873 17.649 84.4011 16.5321 84.4011 15.3933V14.7691C84.4011 13.5866 84.5873 12.4478 84.9596 11.3527C85.3538 10.2358 85.9232 9.25035 86.6678 8.39625C87.4343 7.52025 88.376 6.8304 89.4929 6.3267C90.6098 5.8011 91.9019 5.5383 93.3692 5.5383C95.2964 5.5383 96.906 5.96535 98.1981 6.81945C99.5121 7.65165 100.498 8.7576 101.155 10.1373C101.812 11.4951 102.14 12.9624 102.14 14.5392V16.1817H86.3393V13.3895H99.2822L97.8696 14.7691C97.8696 13.6304 97.7054 12.6558 97.3769 11.8455C97.0484 11.0352 96.5447 10.4111 95.8658 9.97305C95.2088 9.53505 94.3766 9.31605 93.3692 9.31605C92.3618 9.31605 91.5077 9.546 90.8069 10.0059C90.1061 10.4658 89.5695 11.1337 89.1972 12.0098C88.8468 12.8639 88.6716 13.8932 88.6716 15.0976C88.6716 16.2145 88.8468 17.211 89.1972 18.087C89.5476 18.9411 90.0842 19.62 90.8069 20.1237C91.5296 20.6055 92.4494 20.8464 93.5663 20.8464C94.6832 20.8464 95.592 20.6274 96.2928 20.1894C96.9936 19.7295 97.4426 19.171 97.6397 18.514H101.844C101.582 19.7404 101.078 20.8135 100.333 21.7333C99.5888 22.6531 98.6361 23.3649 97.4754 23.8686C96.3366 24.3723 95.0336 24.6242 93.5663 24.6242ZM106.164 24V0.0195005H110.73V24H106.164ZM103.93 3.4359V0.0195005H110.73V3.4359H103.93Z"/>
</mask>
<path d="M8.35767 24L11.7412 6.75375H16.9972L20.9064 24H17.2929L13.318 6.8523H15.2233L11.7084 24H8.35767ZM7.01082 24L6.97797 20.2551H10.6243V24H7.01082ZM5.17122 24L0.309416 6.16245H4.74417L9.37602 24H5.17122ZM18.4426 24V20.2551H22.089L22.0561 24H18.4426ZM19.888 24L23.9943 6.16245H28.1334L23.83 24H19.888ZM35.289 24L29.7045 6.16245H34.402L39.7566 24H35.289ZM36.6358 24V20.2551H41.4648V24H36.6358ZM38.4426 24L43.0416 6.16245H47.4435L42.6145 24H38.4426ZM50.1487 24V18.744H55.2733V24H50.1487ZM50.1487 12.6667V7.41075H55.2733V12.6667H50.1487Z" fill="white"/>
<path d="M64.7048 24L70.5192 14.4735L70.4207 15.229L64.9347 6.16245H69.8951L73.4757 12.4368H73.9685L77.352 6.16245H82.0167L76.8264 15.1962L76.925 14.5392L83.0679 24H78.1076L73.8699 17.2657H73.3772L69.3695 24H64.7048ZM93.5663 24.6242C92.0333 24.6242 90.6864 24.3614 89.5257 23.8357C88.3869 23.3102 87.4343 22.6093 86.6678 21.7333C85.9232 20.8354 85.3538 19.839 84.9596 18.744C84.5873 17.649 84.4011 16.5321 84.4011 15.3933V14.7691C84.4011 13.5866 84.5873 12.4478 84.9596 11.3527C85.3538 10.2358 85.9232 9.25035 86.6678 8.39625C87.4343 7.52025 88.376 6.8304 89.4929 6.3267C90.6098 5.8011 91.9019 5.5383 93.3692 5.5383C95.2964 5.5383 96.906 5.96535 98.1981 6.81945C99.5121 7.65165 100.498 8.7576 101.155 10.1373C101.812 11.4951 102.14 12.9624 102.14 14.5392V16.1817H86.3393V13.3895H99.2822L97.8696 14.7691C97.8696 13.6304 97.7054 12.6558 97.3769 11.8455C97.0484 11.0352 96.5447 10.4111 95.8658 9.97305C95.2088 9.53505 94.3766 9.31605 93.3692 9.31605C92.3618 9.31605 91.5077 9.546 90.8069 10.0059C90.1061 10.4658 89.5695 11.1337 89.1972 12.0098C88.8468 12.8639 88.6716 13.8932 88.6716 15.0976C88.6716 16.2145 88.8468 17.211 89.1972 18.087C89.5476 18.9411 90.0842 19.62 90.8069 20.1237C91.5296 20.6055 92.4494 20.8464 93.5663 20.8464C94.6832 20.8464 95.592 20.6274 96.2928 20.1894C96.9936 19.7295 97.4426 19.171 97.6397 18.514H101.844C101.582 19.7404 101.078 20.8135 100.333 21.7333C99.5888 22.6531 98.6361 23.3649 97.4754 23.8686C96.3366 24.3723 95.0336 24.6242 93.5663 24.6242ZM106.164 24V0.0195005H110.73V24H106.164ZM103.93 3.4359V0.0195005H110.73V3.4359H103.93Z" fill="#CB1A14"/>
<path d="M8.35767 24L8.27252 23.9833L8.25222 24.0868H8.35767V24ZM11.7412 6.75375V6.66698H11.6698L11.6561 6.73705L11.7412 6.75375ZM16.9972 6.75375L17.0818 6.73457L17.0665 6.66698H16.9972V6.75375ZM20.9064 24V24.0868H21.015L20.991 23.9808L20.9064 24ZM17.2929 24L17.2083 24.0196L17.2239 24.0868H17.2929V24ZM13.318 6.8523V6.76554H13.2088L13.2335 6.87189L13.318 6.8523ZM15.2233 6.8523L15.3083 6.86972L15.3297 6.76554H15.2233V6.8523ZM11.7084 24V24.0868H11.7792L11.7934 24.0174L11.7084 24ZM7.01082 24L6.92406 24.0008L6.92481 24.0868H7.01082V24ZM6.97797 20.2551V20.1683H6.89044L6.8912 20.2559L6.97797 20.2551ZM10.6243 20.2551H10.7111V20.1683H10.6243V20.2551ZM10.6243 24V24.0868H10.7111V24H10.6243ZM5.17122 24L5.08751 24.0228L5.10493 24.0868H5.17122V24ZM0.309416 6.16245V6.07568H0.195838L0.225705 6.18527L0.309416 6.16245ZM4.74417 6.16245L4.82815 6.14064L4.81128 6.07568H4.74417V6.16245ZM9.37602 24V24.0868H9.48819L9.46 23.9782L9.37602 24ZM18.4426 24H18.3559V24.0868H18.4426V24ZM18.4426 20.2551V20.1683H18.3559V20.2551H18.4426ZM22.089 20.2551L22.1757 20.2559L22.1765 20.1683H22.089V20.2551ZM22.0561 24V24.0868H22.1421L22.1429 24.0008L22.0561 24ZM19.888 24L19.8035 23.9805L19.779 24.0868H19.888V24ZM23.9943 6.16245V6.07568H23.9252L23.9097 6.14299L23.9943 6.16245ZM28.1334 6.16245L28.2177 6.1828L28.2436 6.07568H28.1334V6.16245ZM23.83 24V24.0868H23.8983L23.9144 24.0203L23.83 24ZM8.44281 24.0167L11.8264 6.77045L11.6561 6.73705L8.27252 23.9833L8.44281 24.0167ZM11.7412 6.84051H16.9972V6.66698H11.7412V6.84051ZM16.9126 6.77293L20.8217 24.0192L20.991 23.9808L17.0818 6.73457L16.9126 6.77293ZM20.9064 23.9132H17.2929V24.0868H20.9064V23.9132ZM17.3774 23.9804L13.4025 6.83271L13.2335 6.87189L17.2083 24.0196L17.3774 23.9804ZM13.318 6.93906H15.2233V6.76554H13.318V6.93906ZM15.1383 6.83488L11.6234 23.9826L11.7934 24.0174L15.3083 6.86972L15.1383 6.83488ZM11.7084 23.9132H8.35767V24.0868H11.7084V23.9132ZM7.09758 23.9992L7.06473 20.2543L6.8912 20.2559L6.92406 24.0008L7.09758 23.9992ZM6.97797 20.3419H10.6243V20.1683H6.97797V20.3419ZM10.5376 20.2551V24H10.7111V20.2551H10.5376ZM10.6243 23.9132H7.01082V24.0868H10.6243V23.9132ZM5.25493 23.9772L0.393127 6.13963L0.225705 6.18527L5.08751 24.0228L5.25493 23.9772ZM0.309416 6.24921H4.74417V6.07568H0.309416V6.24921ZM4.66019 6.18426L9.29204 24.0218L9.46 23.9782L4.82815 6.14064L4.66019 6.18426ZM9.37602 23.9132H5.17122V24.0868H9.37602V23.9132ZM18.5294 24V20.2551H18.3559V24H18.5294ZM18.4426 20.3419H22.089V20.1683H18.4426V20.3419ZM22.0022 20.2543L21.9694 23.9992L22.1429 24.0008L22.1757 20.2559L22.0022 20.2543ZM22.0561 23.9132H18.4426V24.0868H22.0561V23.9132ZM19.9726 24.0195L24.0788 6.18191L23.9097 6.14299L19.8035 23.9805L19.9726 24.0195ZM23.9943 6.24921H28.1334V6.07568H23.9943V6.24921ZM28.049 6.1421L23.7457 23.9797L23.9144 24.0203L28.2177 6.1828L28.049 6.1421ZM23.83 23.9132H19.888V24.0868H23.83V23.9132ZM35.289 24L35.2062 24.0259L35.2252 24.0868H35.289V24ZM29.7045 6.16245V6.07568H29.5864L29.6217 6.18837L29.7045 6.16245ZM34.402 6.16245L34.4851 6.1375L34.4666 6.07568H34.402V6.16245ZM39.7566 24V24.0868H39.8732L39.8397 23.9751L39.7566 24ZM36.6358 24H36.5491V24.0868H36.6358V24ZM36.6358 20.2551V20.1683H36.5491V20.2551H36.6358ZM41.4648 20.2551H41.5515V20.1683H41.4648V20.2551ZM41.4648 24V24.0868H41.5515V24H41.4648ZM38.4426 24L38.3586 23.9783L38.3306 24.0868H38.4426V24ZM43.0416 6.16245V6.07568H42.9743L42.9576 6.14079L43.0416 6.16245ZM47.4435 6.16245L47.5272 6.18512L47.5569 6.07568H47.4435V6.16245ZM42.6145 24V24.0868H42.6809L42.6983 24.0227L42.6145 24ZM35.3718 23.9741L29.7873 6.13653L29.6217 6.18837L35.2062 24.0259L35.3718 23.9741ZM29.7045 6.24921H34.402V6.07568H29.7045V6.24921ZM34.3189 6.1874L39.6735 24.0249L39.8397 23.9751L34.4851 6.1375L34.3189 6.1874ZM39.7566 23.9132H35.289V24.0868H39.7566V23.9132ZM36.7226 24V20.2551H36.5491V24H36.7226ZM36.6358 20.3419H41.4648V20.1683H36.6358V20.3419ZM41.378 20.2551V24H41.5515V20.2551H41.378ZM41.4648 23.9132H36.6358V24.0868H41.4648V23.9132ZM38.5266 24.0217L43.1256 6.18411L42.9576 6.14079L38.3586 23.9783L38.5266 24.0217ZM43.0416 6.24921H47.4435V6.07568H43.0416V6.24921ZM47.3597 6.13978L42.5308 23.9773L42.6983 24.0227L47.5272 6.18512L47.3597 6.13978ZM42.6145 23.9132H38.4426V24.0868H42.6145V23.9132ZM50.1487 24H50.0619V24.0868H50.1487V24ZM50.1487 18.744V18.6572H50.0619V18.744H50.1487ZM55.2733 18.744H55.3601V18.6572H55.2733V18.744ZM55.2733 24V24.0868H55.3601V24H55.2733ZM50.1487 12.6667H50.0619V12.7535H50.1487V12.6667ZM50.1487 7.41075V7.32399H50.0619V7.41075H50.1487ZM55.2733 7.41075H55.3601V7.32399H55.2733V7.41075ZM55.2733 12.6667V12.7535H55.3601V12.6667H55.2733ZM50.2355 24V18.744H50.0619V24H50.2355ZM50.1487 18.8308H55.2733V18.6572H50.1487V18.8308ZM55.1865 18.744V24H55.3601V18.744H55.1865ZM55.2733 23.9132H50.1487V24.0868H55.2733V23.9132ZM50.2355 12.6667V7.41075H50.0619V12.6667H50.2355ZM50.1487 7.49752H55.2733V7.32399H50.1487V7.49752ZM55.1865 7.41075V12.6667H55.3601V7.41075H55.1865ZM55.2733 12.58H50.1487V12.7535H55.2733V12.58ZM64.7048 24L64.6307 23.9548L64.5502 24.0868H64.7048V24ZM70.5192 14.4735L70.6053 14.4847L70.4452 14.4283L70.5192 14.4735ZM70.4207 15.229L70.3464 15.274L70.4747 15.4859L70.5067 15.2403L70.4207 15.229ZM64.9347 6.16245V6.07568H64.7808L64.8605 6.20737L64.9347 6.16245ZM69.8951 6.16245L69.9704 6.11944L69.9454 6.07568H69.8951V6.16245ZM73.4757 12.4368L73.4004 12.4798L73.4253 12.5236H73.4757V12.4368ZM73.9685 12.4368V12.5236H74.0203L74.0448 12.478L73.9685 12.4368ZM77.352 6.16245V6.07568H77.3002L77.2757 6.12127L77.352 6.16245ZM82.0167 6.16245L82.0919 6.20567L82.1666 6.07568H82.0167V6.16245ZM76.8264 15.1962L76.7406 15.1833L76.9016 15.2394L76.8264 15.1962ZM76.925 14.5392L76.9977 14.4919L76.8731 14.3L76.8392 14.5263L76.925 14.5392ZM83.0679 24V24.0868H83.2277L83.1407 23.9527L83.0679 24ZM78.1076 24L78.0341 24.0462L78.0597 24.0868H78.1076V24ZM73.8699 17.2657L73.9434 17.2195L73.9178 17.179H73.8699V17.2657ZM73.3772 17.2657V17.179H73.3278L73.3026 17.2214L73.3772 17.2657ZM69.3695 24V24.0868H69.4188L69.444 24.0444L69.3695 24ZM64.7788 24.0452L70.5933 14.5187L70.4452 14.4283L64.6307 23.9548L64.7788 24.0452ZM70.4332 14.4623L70.3346 15.2178L70.5067 15.2403L70.6053 14.4847L70.4332 14.4623ZM70.4949 15.1841L65.0089 6.11753L64.8605 6.20737L70.3464 15.274L70.4949 15.1841ZM64.9347 6.24921H69.8951V6.07568H64.9347V6.24921ZM69.8197 6.20545L73.4004 12.4798L73.5511 12.3938L69.9704 6.11944L69.8197 6.20545ZM73.4757 12.5236H73.9685V12.35H73.4757V12.5236ZM74.0448 12.478L77.4284 6.20363L77.2757 6.12127L73.8921 12.3956L74.0448 12.478ZM77.352 6.24921H82.0167V6.07568H77.352V6.24921ZM81.9415 6.11923L76.7512 15.153L76.9016 15.2394L82.0919 6.20567L81.9415 6.11923ZM76.9122 15.2091L77.0108 14.5521L76.8392 14.5263L76.7406 15.1833L76.9122 15.2091ZM76.8522 14.5865L82.9951 24.0472L83.1407 23.9527L76.9977 14.4919L76.8522 14.5865ZM83.0679 23.9132H78.1076V24.0868H83.0679V23.9132ZM78.181 23.9538L73.9434 17.2195L73.7965 17.312L78.0341 24.0462L78.181 23.9538ZM73.8699 17.179H73.3772V17.3525H73.8699V17.179ZM73.3026 17.2214L69.2949 23.9556L69.444 24.0444L73.4517 17.3101L73.3026 17.2214ZM69.3695 23.9132H64.7048V24.0868H69.3695V23.9132ZM89.5257 23.8358L89.4894 23.9145L89.4899 23.9148L89.5257 23.8358ZM86.6678 21.7334L86.601 21.7888L86.6025 21.7905L86.6678 21.7334ZM84.9596 18.744L84.8774 18.7719L84.8779 18.7734L84.9596 18.744ZM84.9596 11.3528L84.8777 11.3239L84.8774 11.3248L84.9596 11.3528ZM86.6678 8.39625L86.6025 8.33912L86.6024 8.33923L86.6678 8.39625ZM89.4929 6.3267L89.5285 6.4058L89.5298 6.40521L89.4929 6.3267ZM98.1981 6.81945L98.1503 6.89185L98.1517 6.89275L98.1981 6.81945ZM101.155 10.1373L101.076 10.1746L101.077 10.1751L101.155 10.1373ZM102.14 16.1817V16.2685H102.227V16.1817H102.14ZM86.3393 16.1817H86.2525V16.2685H86.3393V16.1817ZM86.3393 13.3895V13.3027H86.2525V13.3895H86.3393ZM99.2822 13.3895L99.3428 13.4515L99.4952 13.3027H99.2822V13.3895ZM97.8696 14.7691H97.7829V14.9752L97.9302 14.8312L97.8696 14.7691ZM97.3769 11.8455L97.4573 11.8129L97.3769 11.8455ZM95.8658 9.97305L95.8176 10.0452L95.8187 10.046L95.8658 9.97305ZM90.8069 10.0059L90.7593 9.93336L90.8069 10.0059ZM89.1972 12.0098L89.1174 11.9758L89.117 11.9768L89.1972 12.0098ZM89.1972 18.087L89.1167 18.1192L89.117 18.1199L89.1972 18.087ZM90.8069 20.1237L90.7572 20.1949L90.7587 20.1959L90.8069 20.1237ZM96.2928 20.1894L96.3388 20.263L96.3404 20.2619L96.2928 20.1894ZM97.6397 18.514V18.4273H97.5751L97.5566 18.4891L97.6397 18.514ZM101.844 18.514L101.929 18.5322L101.952 18.4273H101.844V18.514ZM100.333 21.7334L100.266 21.6788L100.333 21.7334ZM97.4754 23.8686L97.4409 23.789L97.4403 23.7893L97.4754 23.8686ZM93.5663 24.5374C92.0432 24.5374 90.7089 24.2763 89.5615 23.7567L89.4899 23.9148C90.6639 24.4464 92.0234 24.7109 93.5663 24.7109V24.5374ZM89.5621 23.757C88.4335 23.2361 87.4909 22.5424 86.7331 21.6762L86.6025 21.7905C87.3776 22.6763 88.3404 23.3842 89.4894 23.9145L89.5621 23.757ZM86.7346 21.678C85.9964 20.7878 85.432 19.8001 85.0412 18.7146L84.8779 18.7734C85.2756 19.8779 85.85 20.8831 86.601 21.7887L86.7346 21.678ZM85.0417 18.7161C84.6724 17.6299 84.4879 16.5225 84.4879 15.3933H84.3144C84.3144 16.5417 84.5021 17.6681 84.8774 18.7719L85.0417 18.7161ZM84.4879 15.3933V14.7691H84.3144V15.3933H84.4879ZM84.4879 14.7691C84.4879 13.5958 84.6725 12.4665 85.0417 11.3807L84.8774 11.3248C84.502 12.429 84.3144 13.5773 84.3144 14.7691H84.4879ZM85.0414 11.3816C85.4321 10.2746 85.9961 9.29873 86.7332 8.45327L86.6024 8.33923C85.8502 9.20197 85.2754 10.1971 84.8778 11.3239L85.0414 11.3816ZM86.7331 8.45338C87.491 7.58723 88.4224 6.90466 89.5285 6.40579L89.4572 6.24761C88.3296 6.75614 87.3776 7.45327 86.6025 8.33912L86.7331 8.45338ZM89.5298 6.40521C90.6332 5.88597 91.9123 5.62506 93.3692 5.62506V5.45154C91.8915 5.45154 90.5864 5.71622 89.4559 6.24819L89.5298 6.40521ZM93.3692 5.62506C95.2835 5.62506 96.8755 6.04917 98.1503 6.89183L98.246 6.74707C96.9366 5.88153 95.3092 5.45154 93.3692 5.45154V5.62506ZM98.1517 6.89275C99.4521 7.71636 100.426 8.80995 101.076 10.1746L101.233 10.1C100.569 8.70525 99.5721 7.58694 98.2445 6.74615L98.1517 6.89275ZM101.077 10.1751C101.728 11.5206 102.053 12.9749 102.053 14.5392H102.227C102.227 12.9499 101.896 11.4696 101.233 10.0995L101.077 10.1751ZM102.053 14.5392V16.1817H102.227V14.5392H102.053ZM102.14 16.0949H86.3393V16.2685H102.14V16.0949ZM86.426 16.1817V13.3895H86.2525V16.1817H86.426ZM86.3393 13.4762H99.2822V13.3027H86.3393V13.4762ZM99.2215 13.3274L97.809 14.7071L97.9302 14.8312L99.3428 13.4515L99.2215 13.3274ZM97.9564 14.7691C97.9564 13.6224 97.791 12.6362 97.4573 11.8129L97.2965 11.8781C97.6197 12.6754 97.7829 13.6383 97.7829 14.7691H97.9564ZM97.4573 11.8129C97.1227 10.9875 96.608 10.3486 95.9128 9.90014L95.8187 10.046C96.4814 10.4735 96.9741 11.0829 97.2965 11.8781L97.4573 11.8129ZM95.9139 9.90086C95.2392 9.45105 94.389 9.22928 93.3692 9.22928V9.40281C94.3641 9.40281 95.1784 9.61905 95.8176 10.0452L95.9139 9.90086ZM93.3692 9.22928C92.3483 9.22928 91.4768 9.46245 90.7593 9.93336L90.8545 10.0784C91.5385 9.62955 92.3752 9.40281 93.3692 9.40281V9.22928ZM90.7593 9.93336C90.0423 10.4039 89.4954 11.0862 89.1174 11.9758L89.2771 12.0437C89.6436 11.1813 90.1699 10.5277 90.8545 10.0784L90.7593 9.93336ZM89.117 11.9768C88.7612 12.844 88.5849 13.8851 88.5849 15.0976H88.7584C88.7584 13.9012 88.9325 12.8837 89.2775 12.0427L89.117 11.9768ZM88.5849 15.0976C88.5849 16.2236 88.7615 17.2313 89.1167 18.1192L89.2778 18.0548C88.9322 17.1907 88.7584 16.2055 88.7584 15.0976H88.5849ZM89.117 18.1199C89.4734 18.9887 90.0202 19.6812 90.7573 20.1949L90.8565 20.0525C90.1481 19.5588 89.6219 18.8935 89.2775 18.0541L89.117 18.1199ZM90.7587 20.1959C91.4993 20.6896 92.4371 20.9332 93.5663 20.9332V20.7596C92.4616 20.7596 91.5599 20.5214 90.855 20.0515L90.7587 20.1959ZM93.5663 20.9332C94.6939 20.9332 95.6202 20.7121 96.3388 20.263L96.2468 20.1158C95.5639 20.5427 94.6724 20.7596 93.5663 20.7596V20.9332ZM96.3404 20.2619C97.0544 19.7934 97.5186 19.2196 97.7228 18.539L97.5566 18.4891C97.3666 19.1225 96.9329 19.6656 96.2452 20.1169L96.3404 20.2619ZM97.6397 18.6008H101.844V18.4273H97.6397V18.6008ZM101.76 18.4959C101.5 19.7098 101.001 20.7702 100.266 21.6788L100.401 21.7879C101.155 20.8569 101.664 19.7711 101.929 18.5322L101.76 18.4959ZM100.266 21.6788C99.5307 22.587 98.5897 23.2905 97.4409 23.789L97.51 23.9482C98.6826 23.4393 99.6468 22.7193 100.401 21.7879L100.266 21.6788ZM97.4403 23.7893C96.3144 24.2873 95.0236 24.5374 93.5663 24.5374V24.7109C95.0435 24.7109 96.3589 24.4573 97.5105 23.9479L97.4403 23.7893ZM106.164 24H106.077V24.0868H106.164V24ZM106.164 0.0195007V-0.0672641H106.077V0.0195007H106.164ZM110.73 0.0195007H110.817V-0.0672641H110.73V0.0195007ZM110.73 24V24.0868H110.817V24H110.73ZM103.93 3.4359H103.843V3.52266H103.93V3.4359ZM103.93 0.0195007V-0.0672641H103.843V0.0195007H103.93ZM110.73 0.0195007H110.817V-0.0672641H110.73V0.0195007ZM110.73 3.4359V3.52266H110.817V3.4359H110.73ZM106.25 24V0.0195007H106.077V24H106.25ZM106.164 0.106265H110.73V-0.0672641H106.164V0.106265ZM110.643 0.0195007V24H110.817V0.0195007H110.643ZM110.73 23.9132H106.164V24.0868H110.73V23.9132ZM104.017 3.4359V0.0195007H103.843V3.4359H104.017ZM103.93 0.106265H110.73V-0.0672641H103.93V0.106265ZM110.643 0.0195007V3.4359H110.817V0.0195007H110.643ZM110.73 3.34913H103.93V3.52266H110.73V3.34913Z" fill="#242424" mask="url(#path-1-outside-1_458_4593)"/>
</svg>
