<svg width="127" height="29" viewBox="0 0 127 29" fill="none" xmlns="http://www.w3.org/2000/svg">
<mask id="path-1-outside-1_488_3294" maskUnits="userSpaceOnUse" x="0" y="0.0996094" width="127" height="29" fill="black">
<rect fill="white" y="0.0996094" width="127" height="29"/>
<path d="M9.90235 28.0996L13.7512 8.48175H19.73L24.1767 28.0996H20.0663L15.5448 8.59386H17.7121L13.7138 28.0996H9.90235ZM8.37029 28.0996L8.33292 23.8397H12.4807V28.0996H8.37029ZM6.27771 28.0996L0.747347 7.80914H5.79194L11.0607 28.0996H6.27771ZM21.3741 28.0996V23.8397H25.5219L25.4845 28.0996H21.3741ZM23.0183 28.0996L27.6892 7.80914H32.3975L27.5024 28.0996H23.0183ZM40.5442 28.0996L34.1917 7.80914H39.5353L45.6261 28.0996H40.5442ZM42.0762 28.0996V23.8397H47.5692V28.0996H42.0762ZM44.1314 28.0996L49.3629 7.80914H54.3701L48.8771 28.0996H44.1314ZM57.4544 28.0996V22.1208H63.2837V28.0996H57.4544ZM57.4544 15.2079V9.2291H63.2837V15.2079H57.4544Z"/>
<path d="M74.0263 28.0996L80.6403 17.2631L80.5282 18.1225L74.2879 7.80914H79.9303L84.0034 14.9463H84.5639L88.4127 7.80914H93.7189L87.8148 18.0852L87.927 17.3378L94.9146 28.0996H89.2722L84.4518 20.4393H83.8913L79.3325 28.0996H74.0263ZM106.864 28.8096C105.12 28.8096 103.588 28.5107 102.268 27.9128C100.972 27.3149 99.8885 26.5177 99.0166 25.5213C98.1696 24.4999 97.5219 23.3664 97.0735 22.1208C96.65 20.8753 96.4383 19.6048 96.4383 18.3094V17.5994C96.4383 16.2542 96.65 14.9588 97.0735 13.7132C97.5219 12.4427 98.1696 11.3217 99.0166 10.3501C99.8885 9.35366 100.96 8.56894 102.23 7.99598C103.501 7.3981 104.97 7.09916 106.64 7.09916C108.832 7.09916 110.663 7.58494 112.133 8.55649C113.627 9.50313 114.748 10.7612 115.496 12.3306C116.243 13.8751 116.617 15.5442 116.617 17.3378V19.2062H98.6429V16.03H113.366L111.759 17.5994C111.759 16.304 111.572 15.1954 111.198 14.2737C110.825 13.352 110.252 12.642 109.479 12.1438C108.732 11.6455 107.785 11.3964 106.64 11.3964C105.494 11.3964 104.522 11.658 103.725 12.1811C102.928 12.7043 102.317 13.4641 101.894 14.4605C101.495 15.4321 101.296 16.6029 101.296 17.9731C101.296 19.2435 101.495 20.377 101.894 21.3735C102.292 22.345 102.903 23.1173 103.725 23.6903C104.547 24.2383 105.593 24.5123 106.864 24.5123C108.134 24.5123 109.168 24.2632 109.965 23.765C110.762 23.2419 111.273 22.6066 111.497 21.8593H116.28C115.981 23.2543 115.408 24.475 114.561 25.5213C113.714 26.5675 112.631 27.3772 111.31 27.9501C110.015 28.5231 108.533 28.8096 106.864 28.8096ZM121.201 28.0996V0.821448H126.395V28.0996H121.201ZM118.66 4.70765V0.821448H126.395V4.70765H118.66Z"/>
</mask>
<path d="M9.90235 28.0996L13.7512 8.48175H19.73L24.1767 28.0996H20.0663L15.5448 8.59386H17.7121L13.7138 28.0996H9.90235ZM8.37029 28.0996L8.33292 23.8397H12.4807V28.0996H8.37029ZM6.27771 28.0996L0.747347 7.80914H5.79194L11.0607 28.0996H6.27771ZM21.3741 28.0996V23.8397H25.5219L25.4845 28.0996H21.3741ZM23.0183 28.0996L27.6892 7.80914H32.3975L27.5024 28.0996H23.0183ZM40.5442 28.0996L34.1917 7.80914H39.5353L45.6261 28.0996H40.5442ZM42.0762 28.0996V23.8397H47.5692V28.0996H42.0762ZM44.1314 28.0996L49.3629 7.80914H54.3701L48.8771 28.0996H44.1314ZM57.4544 28.0996V22.1208H63.2837V28.0996H57.4544ZM57.4544 15.2079V9.2291H63.2837V15.2079H57.4544Z" fill="#0258FF"/>
<path d="M74.0263 28.0996L80.6403 17.2631L80.5282 18.1225L74.2879 7.80914H79.9303L84.0034 14.9463H84.5639L88.4127 7.80914H93.7189L87.8148 18.0852L87.927 17.3378L94.9146 28.0996H89.2722L84.4518 20.4393H83.8913L79.3325 28.0996H74.0263ZM106.864 28.8096C105.12 28.8096 103.588 28.5107 102.268 27.9128C100.972 27.3149 99.8885 26.5177 99.0166 25.5213C98.1696 24.4999 97.5219 23.3664 97.0735 22.1208C96.65 20.8753 96.4383 19.6048 96.4383 18.3094V17.5994C96.4383 16.2542 96.65 14.9588 97.0735 13.7132C97.5219 12.4427 98.1696 11.3217 99.0166 10.3501C99.8885 9.35366 100.96 8.56894 102.23 7.99598C103.501 7.3981 104.97 7.09916 106.64 7.09916C108.832 7.09916 110.663 7.58494 112.133 8.55649C113.627 9.50313 114.748 10.7612 115.496 12.3306C116.243 13.8751 116.617 15.5442 116.617 17.3378V19.2062H98.6429V16.03H113.366L111.759 17.5994C111.759 16.304 111.572 15.1954 111.198 14.2737C110.825 13.352 110.252 12.642 109.479 12.1438C108.732 11.6455 107.785 11.3964 106.64 11.3964C105.494 11.3964 104.522 11.658 103.725 12.1811C102.928 12.7043 102.317 13.4641 101.894 14.4605C101.495 15.4321 101.296 16.6029 101.296 17.9731C101.296 19.2435 101.495 20.377 101.894 21.3735C102.292 22.345 102.903 23.1173 103.725 23.6903C104.547 24.2383 105.593 24.5123 106.864 24.5123C108.134 24.5123 109.168 24.2632 109.965 23.765C110.762 23.2419 111.273 22.6066 111.497 21.8593H116.28C115.981 23.2543 115.408 24.475 114.561 25.5213C113.714 26.5675 112.631 27.3772 111.31 27.9501C110.015 28.5231 108.533 28.8096 106.864 28.8096ZM121.201 28.0996V0.821448H126.395V28.0996H121.201ZM118.66 4.70765V0.821448H126.395V4.70765H118.66Z" fill="#CB1A14"/>
<path d="M9.90235 28.0996L9.83444 28.0863L9.81825 28.1688H9.90235V28.0996ZM13.7512 8.48175V8.41255H13.6942L13.6833 8.46843L13.7512 8.48175ZM19.73 8.48175L19.7974 8.46646L19.7852 8.41255H19.73V8.48175ZM24.1767 28.0996V28.1688H24.2633L24.2442 28.0843L24.1767 28.0996ZM20.0663 28.0996L19.9989 28.1152L20.0113 28.1688H20.0663V28.0996ZM15.5448 8.59385V8.52466H15.4577L15.4774 8.60948L15.5448 8.59385ZM17.7121 8.59385L17.7799 8.60775L17.7969 8.52466H17.7121V8.59385ZM13.7138 28.0996V28.1688H13.7703L13.7816 28.1135L13.7138 28.0996ZM8.37029 28.0996L8.30109 28.1002L8.30169 28.1688H8.37029V28.0996ZM8.33292 23.8397V23.7705H8.26311L8.26372 23.8403L8.33292 23.8397ZM12.4807 23.8397H12.5499V23.7705H12.4807V23.8397ZM12.4807 28.0996V28.1688H12.5499V28.0996H12.4807ZM6.27771 28.0996L6.21095 28.1178L6.22485 28.1688H6.27771V28.0996ZM0.747347 7.80914V7.73994H0.656763L0.680584 7.82734L0.747347 7.80914ZM5.79194 7.80914L5.85892 7.79175L5.84546 7.73994H5.79194V7.80914ZM11.0607 28.0996V28.1688H11.1502L11.1277 28.0822L11.0607 28.0996ZM21.3741 28.0996H21.3049V28.1688H21.3741V28.0996ZM21.3741 23.8397V23.7705H21.3049V23.8397H21.3741ZM25.5219 23.8397L25.5911 23.8403L25.5917 23.7705H25.5219V23.8397ZM25.4845 28.0996V28.1688H25.5531L25.5537 28.1002L25.4845 28.0996ZM23.0183 28.0996L22.9509 28.0841L22.9313 28.1688H23.0183V28.0996ZM27.6892 7.80914V7.73994H27.6341L27.6218 7.79362L27.6892 7.80914ZM32.3975 7.80914L32.4648 7.82537L32.4854 7.73994H32.3975V7.80914ZM27.5024 28.0996V28.1688H27.5569L27.5696 28.1158L27.5024 28.0996ZM9.97025 28.1129L13.8191 8.49508L13.6833 8.46843L9.83444 28.0863L9.97025 28.1129ZM13.7512 8.55095H19.73V8.41255H13.7512V8.55095ZM19.6625 8.49705L24.1092 28.1149L24.2442 28.0843L19.7974 8.46646L19.6625 8.49705ZM24.1767 28.0304H20.0663V28.1688H24.1767V28.0304ZM20.1337 28.084L15.6122 8.57823L15.4774 8.60948L19.9989 28.1152L20.1337 28.084ZM15.5448 8.66305H17.7121V8.52466H15.5448V8.66305ZM17.6443 8.57996L13.646 28.0857L13.7816 28.1135L17.7799 8.60775L17.6443 8.57996ZM13.7138 28.0304H9.90235V28.1688H13.7138V28.0304ZM8.43948 28.099L8.40211 23.8391L8.26372 23.8403L8.30109 28.1002L8.43948 28.099ZM8.33292 23.9089H12.4807V23.7705H8.33292V23.9089ZM12.4115 23.8397V28.0996H12.5499V23.8397H12.4115ZM12.4807 28.0304H8.37029V28.1688H12.4807V28.0304ZM6.34448 28.0814L0.81411 7.79094L0.680584 7.82734L6.21095 28.1178L6.34448 28.0814ZM0.747347 7.87834H5.79194V7.73994H0.747347V7.87834ZM5.72496 7.82653L10.9938 28.117L11.1277 28.0822L5.85892 7.79175L5.72496 7.82653ZM11.0607 28.0304H6.27771V28.1688H11.0607V28.0304ZM21.4433 28.0996V23.8397H21.3049V28.0996H21.4433ZM21.3741 23.9089H25.5219V23.7705H21.3741V23.9089ZM25.4527 23.8391L25.4153 28.099L25.5537 28.1002L25.5911 23.8403L25.4527 23.8391ZM25.4845 28.0304H21.3741V28.1688H25.4845V28.0304ZM23.0857 28.1151L27.7566 7.82466L27.6218 7.79362L22.9509 28.0841L23.0857 28.1151ZM27.6892 7.87834H32.3975V7.73994H27.6892V7.87834ZM32.3302 7.79291L27.4351 28.0834L27.5696 28.1158L32.4648 7.82537L32.3302 7.79291ZM27.5024 28.0304H23.0183V28.1688H27.5024V28.0304ZM40.5442 28.0996L40.4781 28.1203L40.4933 28.1688H40.5442V28.0996ZM34.1917 7.80914V7.73994H34.0976L34.1257 7.82981L34.1917 7.80914ZM39.5353 7.80914L39.6015 7.78924L39.5867 7.73994H39.5353V7.80914ZM45.6261 28.0996V28.1688H45.7192L45.6924 28.0797L45.6261 28.0996ZM42.0762 28.0996H42.007V28.1688H42.0762V28.0996ZM42.0762 23.8397V23.7705H42.007V23.8397H42.0762ZM47.5692 23.8397H47.6384V23.7705H47.5692V23.8397ZM47.5692 28.0996V28.1688H47.6384V28.0996H47.5692ZM44.1315 28.0996L44.0644 28.0823L44.0421 28.1688H44.1315V28.0996ZM49.3629 7.80914V7.73994H49.3093L49.2959 7.79186L49.3629 7.80914ZM54.3701 7.80914L54.4369 7.82722L54.4605 7.73994H54.3701V7.80914ZM48.8771 28.0996V28.1688H48.9301L48.9439 28.1177L48.8771 28.0996ZM40.6102 28.0789L34.2578 7.78847L34.1257 7.82981L40.4781 28.1203L40.6102 28.0789ZM34.1917 7.87834H39.5353V7.73994H34.1917V7.87834ZM39.469 7.82904L45.5599 28.1195L45.6924 28.0797L39.6015 7.78924L39.469 7.82904ZM45.6261 28.0304H40.5442V28.1688H45.6261V28.0304ZM42.1454 28.0996V23.8397H42.007V28.0996H42.1454ZM42.0762 23.9089H47.5692V23.7705H42.0762V23.9089ZM47.5 23.8397V28.0996H47.6384V23.8397H47.5ZM47.5692 28.0304H42.0762V28.1688H47.5692V28.0304ZM44.1985 28.1169L49.4299 7.82642L49.2959 7.79186L44.0644 28.0823L44.1985 28.1169ZM49.3629 7.87834H54.3701V7.73994H49.3629V7.87834ZM54.3033 7.79106L48.8103 28.0815L48.9439 28.1177L54.4369 7.82722L54.3033 7.79106ZM48.8771 28.0304H44.1315V28.1688H48.8771V28.0304ZM57.4544 28.0996H57.3852V28.1688H57.4544V28.0996ZM57.4544 22.1208V22.0516H57.3852V22.1208H57.4544ZM63.2837 22.1208H63.3529V22.0516H63.2837V22.1208ZM63.2837 28.0996V28.1688H63.3529V28.0996H63.2837ZM57.4544 15.2079H57.3852V15.2771H57.4544V15.2079ZM57.4544 9.2291V9.1599H57.3852V9.2291H57.4544ZM63.2837 9.2291H63.3529V9.1599H63.2837V9.2291ZM63.2837 15.2079V15.2771H63.3529V15.2079H63.2837ZM57.5236 28.0996V22.1208H57.3852V28.0996H57.5236ZM57.4544 22.19H63.2837V22.0516H57.4544V22.19ZM63.2145 22.1208V28.0996H63.3529V22.1208H63.2145ZM63.2837 28.0304H57.4544V28.1688H63.2837V28.0304ZM57.5236 15.2079V9.2291H57.3852V15.2079H57.5236ZM57.4544 9.2983H63.2837V9.1599H57.4544V9.2983ZM63.2145 9.2291V15.2079H63.3529V9.2291H63.2145ZM63.2837 15.1387H57.4544V15.2771H63.2837V15.1387ZM74.0263 28.0996L73.9672 28.0636L73.903 28.1688H74.0263V28.0996ZM80.6403 17.2631L80.7089 17.272L80.5813 17.227L80.6403 17.2631ZM80.5282 18.1225L80.469 18.1583L80.5713 18.3274L80.5968 18.1315L80.5282 18.1225ZM74.2879 7.80914V7.73994H74.1651L74.2287 7.84496L74.2879 7.80914ZM79.9303 7.80914L79.9904 7.77484L79.9705 7.73994H79.9303V7.80914ZM84.0034 14.9463L83.9433 14.9806L83.9632 15.0155H84.0034V14.9463ZM84.5639 14.9463V15.0155H84.6052L84.6248 14.9791L84.5639 14.9463ZM88.4127 7.80914V7.73994H88.3714L88.3518 7.77629L88.4127 7.80914ZM93.7189 7.80914L93.7789 7.84361L93.8385 7.73994H93.7189V7.80914ZM87.8148 18.0852L87.7464 18.0749L87.8748 18.1196L87.8148 18.0852ZM87.9269 17.3378L87.985 17.3001L87.8856 17.147L87.8585 17.3275L87.9269 17.3378ZM94.9146 28.0996V28.1688H95.0421L94.9727 28.0619L94.9146 28.0996ZM89.2722 28.0996L89.2136 28.1365L89.234 28.1688H89.2722V28.0996ZM84.4518 20.4393L84.5104 20.4024L84.49 20.3701H84.4518V20.4393ZM83.8913 20.4393V20.3701H83.8519L83.8318 20.4039L83.8913 20.4393ZM79.3325 28.0996V28.1688H79.3718L79.3919 28.135L79.3325 28.0996ZM74.0854 28.1357L80.6994 17.2991L80.5813 17.227L73.9672 28.0636L74.0854 28.1357ZM80.5717 17.2541L80.4596 18.1136L80.5968 18.1315L80.7089 17.272L80.5717 17.2541ZM80.5874 18.0867L74.3471 7.77332L74.2287 7.84496L80.469 18.1583L80.5874 18.0867ZM74.2879 7.87834H79.9303V7.73994H74.2879V7.87834ZM79.8702 7.84344L83.9433 14.9806L84.0635 14.912L79.9904 7.77484L79.8702 7.84344ZM84.0034 15.0155H84.5639V14.8771H84.0034V15.0155ZM84.6248 14.9791L88.4736 7.84198L88.3518 7.77629L84.503 14.9135L84.6248 14.9791ZM88.4127 7.87834H93.7189V7.73994H88.4127V7.87834ZM93.6589 7.77467L87.7548 18.0507L87.8748 18.1196L93.7789 7.84361L93.6589 7.77467ZM87.8833 18.0954L87.9954 17.3481L87.8585 17.3275L87.7464 18.0749L87.8833 18.0954ZM87.8689 17.3755L94.8566 28.1373L94.9727 28.0619L87.985 17.3001L87.8689 17.3755ZM94.9146 28.0304H89.2722V28.1688H94.9146V28.0304ZM89.3307 28.0628L84.5104 20.4024L84.3932 20.4762L89.2136 28.1365L89.3307 28.0628ZM84.4518 20.3701H83.8913V20.5085H84.4518V20.3701ZM83.8318 20.4039L79.273 28.0642L79.3919 28.135L83.9507 20.4747L83.8318 20.4039ZM79.3325 28.0304H74.0263V28.1688H79.3325V28.0304ZM102.268 27.9128L102.239 27.9756L102.239 27.9758L102.268 27.9128ZM99.0166 25.5213L98.9633 25.5654L98.9645 25.5668L99.0166 25.5213ZM97.0735 22.1208L97.008 22.1431L97.0084 22.1443L97.0735 22.1208ZM97.0735 13.7132L97.0083 13.6901L97.008 13.6909L97.0735 13.7132ZM99.0166 10.3501L98.9645 10.3046L98.9645 10.3046L99.0166 10.3501ZM102.23 7.99598L102.259 8.05907L102.26 8.05859L102.23 7.99598ZM112.133 8.55649L112.094 8.61423L112.096 8.61495L112.133 8.55649ZM115.496 12.3306L115.433 12.3603L115.433 12.3607L115.496 12.3306ZM116.617 19.2062V19.2754H116.686V19.2062H116.617ZM98.6429 19.2062H98.5737V19.2754H98.6429V19.2062ZM98.6429 16.03V15.9608H98.5737V16.03H98.6429ZM113.366 16.03L113.414 16.0795L113.536 15.9608H113.366V16.03ZM111.759 17.5994H111.69V17.7637L111.807 17.6489L111.759 17.5994ZM111.198 14.2737L111.263 14.2477L111.198 14.2737ZM109.479 12.1438L109.441 12.2013L109.442 12.2019L109.479 12.1438ZM103.725 12.1811L103.687 12.1233L103.725 12.1811ZM101.894 14.4605L101.83 14.4335L101.83 14.4343L101.894 14.4605ZM101.894 21.3735L101.83 21.3992L101.83 21.3998L101.894 21.3735ZM103.725 23.6903L103.685 23.747L103.687 23.7478L103.725 23.6903ZM109.965 23.765L110.002 23.8237L110.003 23.8229L109.965 23.765ZM111.497 21.8593V21.7901H111.446L111.431 21.8394L111.497 21.8593ZM116.28 21.8593L116.348 21.8738L116.366 21.7901H116.28V21.8593ZM114.561 25.5213L114.508 25.4777L114.561 25.5213ZM111.31 27.9501L111.283 27.8867L111.282 27.8869L111.31 27.9501ZM106.864 28.7404C105.128 28.7404 103.606 28.4428 102.296 27.8497L102.239 27.9758C103.57 28.5785 105.112 28.8788 106.864 28.8788V28.7404ZM102.297 27.8499C101.009 27.2558 99.9337 26.4643 99.0687 25.4757L98.9645 25.5668C99.8433 26.5712 100.935 27.374 102.239 27.9756L102.297 27.8499ZM99.0699 25.4771C98.228 24.4619 97.5843 23.3354 97.1386 22.0974L97.0084 22.1443C97.4595 23.3974 98.1113 24.5379 98.9633 25.5654L99.0699 25.4771ZM97.139 22.0986C96.7179 20.86 96.5075 19.5971 96.5075 18.3094H96.3691C96.3691 19.6125 96.5821 20.8905 97.008 22.1431L97.139 22.0986ZM96.5075 18.3094V17.5994H96.3691V18.3094H96.5075ZM96.5075 17.5994C96.5075 16.2616 96.718 14.9737 97.139 13.7355L97.008 13.6909C96.582 14.9438 96.3691 16.2468 96.3691 17.5994H96.5075ZM97.1388 13.7362C97.5844 12.4736 98.2278 11.3603 99.0688 10.3956L98.9645 10.3046C98.1115 11.2831 97.4594 12.4118 97.0083 13.6902L97.1388 13.7362ZM99.0687 10.3957C99.9337 9.40708 100.997 8.62817 102.259 8.05906L102.202 7.9329C100.923 8.50972 99.8433 9.30024 98.9645 10.3046L99.0687 10.3957ZM102.26 8.05859C103.519 7.46579 104.979 7.16836 106.64 7.16836V7.02996C104.962 7.02996 103.482 7.33041 102.201 7.93336L102.26 8.05859ZM106.64 7.16836C108.822 7.16836 110.638 7.65179 112.094 8.61422L112.171 8.49876C110.687 7.51808 108.842 7.02996 106.64 7.02996V7.16836ZM112.096 8.61495C113.579 9.55474 114.692 10.8029 115.433 12.3603L115.558 12.3008C114.805 10.7194 113.675 9.45152 112.17 8.49803L112.096 8.61495ZM115.433 12.3607C116.176 13.8954 116.547 15.5541 116.547 17.3378H116.686C116.686 15.5342 116.31 13.8548 115.558 12.3004L115.433 12.3607ZM116.547 17.3378V19.2062H116.686V17.3378H116.547ZM116.617 19.137H98.6429V19.2754H116.617V19.137ZM98.7121 19.2062V16.03H98.5737V19.2062H98.7121ZM98.6429 16.0992H113.366V15.9608H98.6429V16.0992ZM113.317 15.9805L111.711 17.5499L111.807 17.6489L113.414 16.0795L113.317 15.9805ZM111.828 17.5994C111.828 16.2976 111.64 15.1798 111.263 14.2477L111.134 14.2997C111.504 15.2111 111.69 16.3103 111.69 17.5994H111.828ZM111.263 14.2477C110.884 13.3139 110.302 12.5922 109.517 12.0856L109.442 12.2019C110.201 12.6918 110.765 13.39 111.134 14.2997L111.263 14.2477ZM109.518 12.0862C108.756 11.5785 107.795 11.3272 106.64 11.3272V11.4656C107.776 11.4656 108.708 11.7125 109.441 12.2013L109.518 12.0862ZM106.64 11.3272C105.483 11.3272 104.497 11.5913 103.687 12.1233L103.763 12.239C104.547 11.7246 105.504 11.4656 106.64 11.4656V11.3272ZM103.687 12.1233C102.877 12.6549 102.258 13.4262 101.83 14.4335L101.958 14.4876C102.376 13.5019 102.979 12.7536 103.763 12.239L103.687 12.1233ZM101.83 14.4343C101.427 15.4163 101.227 16.5965 101.227 17.9731H101.365C101.365 16.6093 101.564 15.4479 101.958 14.4868L101.83 14.4343ZM101.227 17.9731C101.227 19.2508 101.427 20.3932 101.83 21.3992L101.958 21.3478C101.563 20.3609 101.365 19.2363 101.365 17.9731H101.227ZM101.83 21.3998C102.233 22.383 102.852 23.1661 103.685 23.747L103.764 23.6335C102.954 23.0685 102.352 22.3071 101.958 21.3472L101.83 21.3998ZM103.687 23.7478C104.523 24.3054 105.583 24.5815 106.864 24.5815V24.4431C105.603 24.4431 104.571 24.1713 103.763 23.6327L103.687 23.7478ZM106.864 24.5815C108.143 24.5815 109.191 24.3308 110.002 23.8237L109.929 23.7063C109.146 24.1957 108.126 24.4431 106.864 24.4431V24.5815ZM110.003 23.8229C110.811 23.2928 111.334 22.6453 111.564 21.8791L111.431 21.8394C111.212 22.5679 110.714 23.1909 109.927 23.7071L110.003 23.8229ZM111.497 21.9285H116.28V21.7901H111.497V21.9285ZM116.213 21.8448C115.916 23.2298 115.347 24.4404 114.508 25.4777L114.615 25.5648C115.469 24.5096 116.047 23.2788 116.348 21.8738L116.213 21.8448ZM114.508 25.4777C113.668 26.5148 112.594 27.3178 111.283 27.8867L111.338 28.0136C112.668 27.4365 113.761 26.6203 114.615 25.5648L114.508 25.4777ZM111.282 27.8869C109.997 28.4553 108.525 28.7404 106.864 28.7404V28.8788C108.541 28.8788 110.033 28.5909 111.338 28.0134L111.282 27.8869ZM121.201 28.0996H121.131V28.1688H121.201V28.0996ZM121.201 0.821447V0.752249H121.131V0.821447H121.201ZM126.395 0.821447H126.464V0.752249H126.395V0.821447ZM126.395 28.0996V28.1688H126.464V28.0996H126.395ZM118.66 4.70765H118.59V4.77685H118.66V4.70765ZM118.66 0.821447V0.752249H118.59V0.821447H118.66ZM126.395 0.821447H126.464V0.752249H126.395V0.821447ZM126.395 4.70765V4.77685H126.464V4.70765H126.395ZM121.27 28.0996V0.821447H121.131V28.0996H121.27ZM121.201 0.890646H126.395V0.752249H121.201V0.890646ZM126.325 0.821447V28.0996H126.464V0.821447H126.325ZM126.395 28.0304H121.201V28.1688H126.395V28.0304ZM118.729 4.70765V0.821447H118.59V4.70765H118.729ZM118.66 0.890646H126.395V0.752249H118.66V0.890646ZM126.325 0.821447V4.70765H126.464V0.821447H126.325ZM126.395 4.63845H118.66V4.77685H126.395V4.63845Z" fill="#242424" mask="url(#path-1-outside-1_488_3294)"/>
</svg>
